<svg width="370" height="175" viewBox="0 0 370 175" fill="none" xmlns="http://www.w3.org/2000/svg">
<path d="M184.284 135.196L184.635 94.1793L185.068 85.6316L235.483 75.4036L328.584 55.6676L240.118 63.0034L185.183 72.9732L184.098 79.382L179.267 71.9716L179.345 41.5579L367.72 52.1511L229.14 112.87L184.284 135.196Z" fill="#A9A9A9" fill-opacity="0.33"/>
<path d="M184.56 91.6299C186.644 112.267 183.624 136.098 183.624 136.098L217.702 117.526" stroke="#868686" stroke-width="3"/>
<path d="M209.882 121.781C209.882 121.781 214.387 128.122 216.852 128.539C219.317 128.956 254.563 103.482 288.884 86.4728" stroke="#868686" stroke-width="3"/>
<path d="M225.764 114.836C225.764 114.836 280.738 89.6589 369.365 51.4165C182.72 39.5937 180.164 42.7117 180.164 42.7117C180.164 42.7117 176.886 71.0613 179.676 72.549C182.05 76.4997 185.41 80.6193 185.41 80.6193L184.606 73.3836C184.606 73.3836 215.954 61.955 335.159 55.7676C335.159 55.7676 150.5 87.9965 138 99.9965C104 121.5 69.5 108 46.0002 123" stroke="#868686" stroke-width="3"/>
<path d="M12.0882 148.336L14.7686 151.656L56.2056 97.348L53.0475 92.3698L0.5 99L12.0882 148.336Z" fill="#864B39"/>
<rect x="8.05762" y="103.576" width="48.7907" height="48.7907" transform="rotate(-7.94602 8.05762 103.576)" fill="#B8664D"/>
</svg>
